<?xml version="1.0" standalone="no"?>
<!DOCTYPE svg PUBLIC "-//W3C//DTD SVG 20010904//EN"
 "http://www.w3.org/TR/2001/REC-SVG-20010904/DTD/svg10.dtd">
<svg version="1.0" xmlns="http://www.w3.org/2000/svg"
 width="1307.000000pt" height="980.000000pt" viewBox="0 0 1307.000000 980.000000"
 preserveAspectRatio="xMidYMid meet">

<g transform="translate(0.000000,980.000000) scale(0.100000,-0.100000)"
fill="#000000" stroke="none">
<path d="M7656 7336 c-21 -8 -51 -27 -67 -42 -25 -24 -144 -190 -338 -474 -36
-52 -88 -127 -115 -167 -28 -40 -190 -275 -361 -522 -170 -248 -315 -450 -321
-451 -10 0 -109 141 -508 719 -237 345 -537 776 -574 827 -17 22 -47 49 -67
58 -46 22 -138 23 -186 3 -43 -18 -55 -33 -254 -322 -87 -126 -233 -338 -325
-470 -92 -132 -319 -460 -505 -730 -515 -746 -531 -769 -650 -940 -61 -88
-215 -310 -341 -493 -126 -182 -334 -484 -463 -670 -128 -185 -237 -348 -243
-362 -12 -31 -2 -69 25 -98 50 -54 -8 -52 1339 -52 1144 -1 1253 1 1275 16 14
9 53 19 87 22 61 5 61 6 126 76 36 39 82 88 102 110 28 30 34 43 26 53 -5 7
-8 19 -5 27 3 7 95 142 204 300 109 158 209 304 223 324 14 21 55 80 91 132
36 52 182 264 324 470 264 383 293 423 305 415 3 -2 139 -196 301 -430 162
-235 337 -488 389 -563 83 -119 391 -564 456 -660 19 -27 21 -37 12 -52 -10
-16 1 -32 80 -118 50 -55 99 -105 108 -113 23 -19 147 -13 212 12 51 18 88 19
1257 19 l1205 0 46 21 c76 36 95 103 47 174 -14 22 -90 132 -168 245 -78 113
-290 419 -470 680 -180 261 -361 522 -401 580 -40 58 -284 411 -543 785 -258
374 -535 775 -615 890 -81 116 -228 329 -329 474 -198 287 -211 301 -306 308
-25 2 -63 -3 -85 -11z m142 -493 c38 -54 115 -165 172 -248 177 -257 267 -387
546 -790 149 -214 295 -426 325 -470 30 -44 142 -206 249 -360 106 -154 319
-462 473 -685 154 -223 345 -499 425 -614 80 -115 145 -216 146 -225 1 -15
-98 -16 -1060 -19 -838 -2 -1063 1 -1076 10 -15 12 -216 298 -528 753 -68 99
-178 259 -245 355 -129 185 -504 728 -549 794 -15 22 -25 45 -22 52 2 6 208
306 457 665 249 360 478 690 508 734 68 100 101 145 106 145 2 0 35 -44 73
-97z m-2248 -429 c179 -258 408 -588 509 -734 101 -146 186 -274 188 -285 3
-14 -41 -86 -138 -225 -132 -192 -289 -419 -604 -875 -469 -680 -610 -881
-623 -892 -13 -10 -237 -13 -1049 -13 -939 0 -1033 1 -1033 16 0 9 70 118 157
242 86 125 210 306 276 402 67 96 146 211 177 255 31 44 108 154 170 245 62
91 193 280 290 420 186 269 795 1149 889 1285 410 596 440 637 454 632 7 -2
158 -215 337 -473z"/>
</g>
</svg>
